<?xml version="1.0" encoding="UTF-8"?>
<svg id="Master_Logos" data-name="Master Logos" xmlns="http://www.w3.org/2000/svg" viewBox="0 0 96 96">
  <defs>
    <style>
      .cls-1 {
        fill: #fff;
      }
    </style>
  </defs>
  <path class="cls-1" d="M25.7,76.64L3.65,54.58c-4.86-4.86-4.86-12.75,0-17.61L25.7,14.92c1.17-1.17,2.75-1.82,4.4-1.82h22.34s-7.05,10.57-7.05,10.57c-1.15,1.73-3.1,2.77-5.18,2.77h-3.49c-2.36,0-4.62.94-6.29,2.6h0c-9.24,9.24-9.24,24.23,0,33.48h0c1.67,1.67,3.93,2.6,6.29,2.6h5.26c.86,0,1.56.7,1.56,1.56v11.78h-13.45c-1.65,0-3.23-.66-4.4-1.82Z"/>
  <path class="cls-1" d="M43.55,82.91l7.05-10.57c1.15-1.73,3.1-2.77,5.18-2.77h3.49c2.36,0,4.62-.94,6.29-2.6h0c9.24-9.24,9.24-24.23,0-33.48h0c-1.67-1.67-3.93-2.6-6.29-2.6h-15.71s7.05-10.57,7.05-10.57c1.15-1.73,3.1-2.77,5.18-2.77h10.12c1.65,0,3.23.66,4.4,1.82l22.06,22.06c4.86,4.86,4.86,12.75,0,17.61l-22.06,22.06c-1.17,1.17-2.75,1.82-4.4,1.82h-22.34Z"/>
  <path class="cls-1" d="M57.86,48c0,5.51-4.77,9.9-10.4,9.28-4.27-.47-7.75-3.94-8.22-8.22-.62-5.63,3.77-10.4,9.28-10.4,1.09,0,2.14.19,3.11.52v2.59c0,1.72,1.39,3.11,3.11,3.11h2.59c.34.97.52,2.02.52,3.11Z"/>
</svg>